<svg xmlns="http://www.w3.org/2000/svg" width="1200" height="630" viewBox="0 0 1200 630" role="img" aria-label="De Salmari-Soldaat — Borrel 35 archetype banner">
  <title>De Salmari-Soldaat</title>
  <desc>Shots, stad en de befaamde verdwijntruc.</desc>
  <defs>
    <linearGradient id="bg-salmari-soldaat" x1="0" y1="0" x2="0.35" y2="1">
      <stop offset="0" stop-color="#342a46"/>
      <stop offset="1" stop-color="#221b30"/>
    </linearGradient>
  </defs>
  <rect width="1200" height="630" fill="url(#bg-salmari-soldaat)"/>
  <g><path d="M 1153.0 608.3 C 1152.0 621.1 1121.4 632.4 1109.0 644.2 C 1096.6 656.1 1093.3 672.3 1078.7 679.2 C 1064.1 686.2 1035.1 693.6 1021.3 686.1 C 1007.4 678.5 997.6 650.4 995.5 634.0 C 993.4 617.6 1003.7 603.2 1008.9 587.4 C 1014.0 571.7 1015.0 546.8 1026.4 539.4 C 1037.9 532.1 1062.8 538.7 1077.6 543.3 C 1092.4 547.9 1102.6 556.4 1115.1 567.2 C 1127.7 578.0 1154.0 595.4 1153.0 608.3 Z" fill="#221b30" opacity="0.178"/><path d="M 617.5 20.8 C 617.8 35.0 608.1 57.1 597.3 64.4 C 586.5 71.6 568.4 66.8 552.7 64.3 C 537.0 61.8 511.5 61.6 503.1 49.5 C 494.6 37.4 494.1 5.5 501.9 -8.4 C 509.8 -22.2 534.6 -31.6 550.2 -33.6 C 565.8 -35.6 584.4 -29.6 595.6 -20.5 C 606.8 -11.4 617.2 6.7 617.5 20.8 Z" fill="#221b30" opacity="0.206"/><path d="M 445.0 293.8 C 445.0 310.0 464.1 334.7 457.9 342.4 C 451.8 350.1 423.3 338.9 408.2 340.1 C 393.2 341.4 378.5 354.1 367.7 349.8 C 357.0 345.5 350.1 328.0 343.7 314.3 C 337.2 300.7 325.8 282.0 329.1 268.0 C 332.4 254.0 349.6 237.4 363.5 230.4 C 377.3 223.5 396.3 223.7 412.0 226.2 C 427.7 228.7 452.3 234.1 457.8 245.4 C 463.3 256.7 445.0 277.7 445.0 293.8 Z" fill="#221b30" opacity="0.109"/><path d="M 645.4 363.3 C 644.8 383.5 623.4 406.5 607.2 422.2 C 591.1 438.0 567.4 458.6 548.3 457.9 C 529.3 457.3 505.0 434.4 493.1 418.6 C 481.1 402.9 474.9 379.9 476.7 363.3 C 478.6 346.8 492.3 336.1 504.2 319.2 C 516.2 302.4 530.6 265.2 548.3 262.2 C 566.1 259.2 594.4 284.3 610.6 301.1 C 626.7 318.0 645.9 343.2 645.4 363.3 Z" fill="#221b30" opacity="0.154"/><path d="M 935.6 223.2 C 936.3 233.9 925.6 248.3 916.7 257.2 C 907.9 266.2 893.7 277.2 882.7 276.8 C 871.8 276.5 858.6 264.0 851.0 255.0 C 843.3 246.1 836.0 233.0 836.9 223.2 C 837.7 213.5 848.4 203.0 856.1 196.6 C 863.7 190.1 873.3 185.3 882.7 184.8 C 892.2 184.3 903.8 187.0 912.6 193.4 C 921.4 199.8 934.9 212.6 935.6 223.2 Z" fill="#221b30" opacity="0.254"/><path d="M 1249.2 294.6 C 1245.0 310.7 1235.0 319.7 1225.9 332.4 C 1216.7 345.1 1207.7 366.9 1194.2 370.9 C 1180.8 374.8 1158.8 364.7 1145.3 356.1 C 1131.8 347.5 1121.8 334.8 1113.1 319.2 C 1104.3 303.6 1089.0 279.5 1092.9 262.6 C 1096.7 245.6 1118.9 227.2 1136.2 217.4 C 1153.6 207.5 1177.7 200.5 1196.9 203.5 C 1216.0 206.5 1242.4 220.4 1251.1 235.6 C 1259.8 250.7 1253.4 278.4 1249.2 294.6 Z" fill="#221b30" opacity="0.146"/><path d="M 610.8 211.5 C 612.7 229.1 612.6 255.1 602.2 268.9 C 591.8 282.6 568.6 288.7 548.5 294.2 C 528.4 299.8 495.8 311.8 481.5 302.4 C 467.1 292.9 465.3 257.1 462.2 237.6 C 459.1 218.2 458.1 202.4 462.8 185.7 C 467.6 168.9 476.3 148.4 490.9 137.1 C 505.5 125.7 533.8 113.1 550.5 117.5 C 567.1 122.0 580.8 148.1 590.9 163.7 C 600.9 179.4 608.9 194.0 610.8 211.5 Z" fill="#221b30" opacity="0.152"/><path d="M 740.9 471.8 C 739.5 483.5 738.0 493.5 730.5 501.6 C 722.9 509.8 706.1 522.3 695.6 520.5 C 685.1 518.7 672.5 502.2 667.5 490.7 C 662.4 479.3 660.6 463.3 665.2 451.8 C 669.8 440.4 683.0 425.3 695.3 421.9 C 707.6 418.5 731.2 423.3 738.8 431.6 C 746.4 439.9 742.3 460.2 740.9 471.8 Z" fill="#221b30" opacity="0.197"/><path d="M 321.2 303.8 C 323.5 312.0 314.5 329.1 307.0 334.3 C 299.5 339.5 286.1 333.1 276.1 334.8 C 266.2 336.5 254.9 347.2 247.2 344.5 C 239.5 341.8 231.8 327.4 230.1 318.6 C 228.4 309.8 233.8 300.2 237.0 291.5 C 240.1 282.8 242.7 269.2 249.1 266.5 C 255.6 263.8 268.4 272.3 275.7 275.4 C 283.0 278.5 285.3 280.4 292.9 285.2 C 300.4 289.9 318.8 295.6 321.2 303.8 Z" fill="#221b30" opacity="0.222"/><path d="M 419.3 140.8 C 416.8 153.4 407.4 159.6 399.0 171.3 C 390.5 183.0 381.2 208.5 368.5 211.0 C 355.7 213.6 332.3 198.3 322.6 186.6 C 312.9 174.9 309.2 154.9 310.4 140.8 C 311.6 126.7 320.2 109.5 329.9 102.2 C 339.6 94.9 354.5 98.2 368.5 97.1 C 382.5 96.0 405.4 88.1 413.9 95.4 C 422.4 102.6 421.8 128.1 419.3 140.8 Z" fill="#221b30" opacity="0.192"/><path d="M 594.3 509.0 C 593.6 515.8 590.7 524.0 586.3 527.2 C 582.0 530.4 574.1 528.4 568.2 528.3 C 562.2 528.2 556.3 529.8 550.6 526.6 C 544.9 523.4 534.8 515.6 534.1 509.0 C 533.4 502.5 540.8 492.5 546.5 487.3 C 552.1 482.1 560.8 478.0 568.2 477.9 C 575.5 477.8 586.3 481.3 590.7 486.5 C 595.1 491.7 595.0 502.2 594.3 509.0 Z" fill="#221b30" opacity="0.234"/><path d="M 468.9 352.1 C 470.1 358.2 473.8 369.4 470.4 373.9 C 467.0 378.5 455.3 379.9 448.5 379.4 C 441.8 378.8 434.3 375.3 429.9 370.7 C 425.5 366.2 421.6 357.9 422.0 352.1 C 422.3 346.2 427.7 339.2 432.1 335.7 C 436.6 332.2 443.3 330.9 448.5 331.1 C 453.7 331.4 460.1 333.6 463.5 337.1 C 466.9 340.6 467.8 345.9 468.9 352.1 Z" fill="#221b30" opacity="0.213"/><path d="M 623.8 511.7 C 624.7 517.6 619.9 527.9 615.1 532.1 C 610.2 536.2 602.6 535.8 594.7 536.8 C 586.9 537.9 574.1 542.6 568.1 538.4 C 562.0 534.2 557.6 519.9 558.3 511.7 C 559.0 503.6 566.4 493.7 572.5 489.4 C 578.5 485.2 588.5 485.1 594.7 486.3 C 601.0 487.5 605.0 492.3 609.9 496.6 C 614.7 500.8 623.0 505.8 623.8 511.7 Z" fill="#221b30" opacity="0.183"/><path d="M 1081.1 14.7 C 1079.4 25.4 1063.8 33.9 1055.6 42.4 C 1047.3 50.9 1041.5 62.4 1031.6 65.5 C 1021.7 68.6 1005.0 66.6 996.0 60.8 C 987.0 55.1 979.8 41.2 977.6 31.1 C 975.5 21.0 981.0 12.2 983.3 0.4 C 985.6 -11.3 983.0 -31.9 991.3 -39.4 C 999.7 -47.0 1020.8 -48.0 1033.2 -45.0 C 1045.5 -42.0 1057.5 -31.2 1065.5 -21.2 C 1073.5 -11.3 1082.8 4.1 1081.1 14.7 Z" fill="#221b30" opacity="0.158"/><path d="M 524.3 561.5 C 522.7 572.5 519.8 579.9 512.1 588.7 C 504.4 597.6 488.7 615.8 478.3 614.5 C 467.9 613.3 452.9 592.3 449.8 581.0 C 446.8 569.7 454.4 555.7 459.8 546.8 C 465.3 537.9 472.4 531.8 482.7 527.7 C 493.0 523.7 514.6 516.8 521.5 522.5 C 528.4 528.1 525.8 550.4 524.3 561.5 Z" fill="#221b30" opacity="0.141"/><path d="M 72.6 484.8 C 74.6 495.5 62.8 515.8 52.2 524.3 C 41.6 532.9 20.1 539.8 8.9 536.0 C -2.3 532.3 -12.3 512.7 -15.0 501.9 C -17.7 491.1 -11.6 482.0 -7.4 471.2 C -3.3 460.5 1.9 439.4 9.9 437.5 C 17.9 435.6 30.1 451.9 40.6 459.8 C 51.0 467.6 70.7 474.0 72.6 484.8 Z" fill="#221b30" opacity="0.131"/><path d="M 810.2 82.4 C 811.0 99.4 789.3 121.6 774.5 135.8 C 759.6 150.0 738.7 167.9 721.1 167.8 C 703.5 167.6 680.8 149.1 668.6 134.9 C 656.4 120.7 645.7 97.8 647.9 82.4 C 650.0 67.1 669.2 55.7 681.4 42.7 C 693.6 29.7 706.4 5.9 721.1 4.4 C 735.8 2.9 754.8 20.9 769.6 33.9 C 784.5 46.9 809.4 65.4 810.2 82.4 Z" fill="#221b30" opacity="0.153"/><path d="M 972.5 531.6 C 971.0 550.4 971.5 574.6 960.9 583.6 C 950.3 592.6 928.4 583.7 908.9 585.8 C 889.4 587.9 859.7 605.5 844.1 596.5 C 828.4 587.4 812.1 550.1 815.3 531.6 C 818.4 513.1 847.2 500.4 862.8 485.5 C 878.4 470.6 891.1 444.5 908.9 442.1 C 926.7 439.7 959.0 456.0 969.6 471.0 C 980.1 485.9 973.9 512.8 972.5 531.6 Z" fill="#221b30" opacity="0.184"/><path d="M 479.8 349.9 C 480.0 362.2 469.3 379.0 458.7 387.8 C 448.1 396.7 429.2 405.6 416.3 403.0 C 403.4 400.5 386.2 384.6 381.5 372.5 C 376.7 360.4 381.2 339.2 387.8 330.3 C 394.5 321.5 409.9 322.0 421.5 319.3 C 433.0 316.6 447.3 308.9 457.1 314.0 C 466.8 319.1 479.5 337.6 479.8 349.9 Z" fill="#221b30" opacity="0.242"/><path d="M 853.5 359.2 C 852.0 368.4 835.7 376.5 827.6 382.1 C 819.4 387.7 812.6 392.4 804.7 392.7 C 796.8 392.9 785.4 389.2 780.3 383.7 C 775.1 378.1 775.2 368.7 773.8 359.2 C 772.5 349.7 767.1 333.7 772.2 326.8 C 777.4 319.8 794.0 317.5 804.7 317.6 C 815.4 317.7 828.6 320.3 836.7 327.2 C 844.8 334.2 855.0 350.1 853.5 359.2 Z" fill="#221b30" opacity="0.142"/><path d="M 137.3 348.1 C 137.6 357.3 141.2 368.7 136.3 376.6 C 131.4 384.4 116.2 396.6 107.9 395.3 C 99.7 394.1 91.8 377.0 86.9 369.2 C 82.0 361.3 78.8 355.4 78.6 348.1 C 78.3 340.8 80.3 332.7 85.2 325.5 C 90.1 318.2 99.7 305.0 107.9 304.4 C 116.1 303.7 129.4 314.4 134.3 321.7 C 139.2 329.0 136.9 339.0 137.3 348.1 Z" fill="#221b30" opacity="0.180"/><path d="M 271.0 136.0 C 273.2 144.3 267.7 161.9 260.7 167.7 C 253.7 173.5 238.8 171.6 229.0 170.9 C 219.1 170.2 208.8 169.2 201.5 163.4 C 194.3 157.6 184.3 143.9 185.6 136.0 C 186.9 128.1 202.0 123.6 209.3 116.3 C 216.5 109.0 222.6 92.0 229.0 92.2 C 235.3 92.4 240.3 110.4 247.3 117.7 C 254.3 125.0 268.7 127.7 271.0 136.0 Z" fill="#221b30" opacity="0.174"/><path d="M 247.1 81.3 C 248.7 96.6 244.8 123.9 234.2 131.9 C 223.6 140.0 200.6 129.4 183.6 129.6 C 166.5 129.8 143.7 141.0 131.9 133.0 C 120.1 124.9 109.5 95.2 112.8 81.3 C 116.1 67.4 139.9 59.0 151.7 49.4 C 163.5 39.8 171.4 25.1 183.6 23.6 C 195.7 22.1 214.0 30.7 224.6 40.3 C 235.2 49.9 245.5 66.0 247.1 81.3 Z" fill="#221b30" opacity="0.166"/><path d="M 1042.4 570.7 C 1037.8 587.4 1008.6 596.3 995.4 609.2 C 982.2 622.2 978.3 641.7 963.1 648.3 C 948.0 654.9 916.7 657.9 904.4 648.6 C 892.1 639.3 894.4 610.0 889.4 592.5 C 884.5 575.0 872.2 560.5 874.5 543.4 C 876.7 526.3 888.2 497.7 902.8 489.9 C 917.5 482.2 942.4 493.6 962.5 496.8 C 982.5 499.9 1009.9 496.5 1023.2 508.8 C 1036.5 521.1 1047.0 553.9 1042.4 570.7 Z" fill="#221b30" opacity="0.222"/><path d="M 776.4 89.1 C 774.3 105.2 757.2 117.0 743.5 129.3 C 729.9 141.6 709.7 164.9 694.6 162.9 C 679.6 160.8 658.8 133.5 653.3 117.1 C 647.7 100.8 653.6 79.0 661.2 64.9 C 668.7 50.8 682.7 38.0 698.6 32.6 C 714.5 27.2 743.5 23.2 756.5 32.6 C 769.5 42.1 778.6 73.0 776.4 89.1 Z" fill="#221b30" opacity="0.123"/><path d="M 451.6 525.0 C 450.5 532.6 448.6 538.6 444.1 544.7 C 439.6 550.7 430.8 561.5 424.4 561.3 C 418.0 561.1 412.5 549.5 405.9 543.4 C 399.4 537.4 386.6 532.6 385.1 525.0 C 383.6 517.3 390.4 502.4 397.0 497.5 C 403.5 492.6 415.4 495.4 424.4 495.6 C 433.3 495.8 446.1 493.8 450.7 498.7 C 455.2 503.6 452.6 517.3 451.6 525.0 Z" fill="#221b30" opacity="0.248"/></g>
  <!-- giraffe-gold frame keeps every banner on one family -->
  <rect x="18" y="18" width="1164" height="594" fill="none" stroke="#fbf4e8" stroke-opacity="0.35" stroke-width="3" rx="26"/>
  <text x="80" y="112" font-size="26" font-weight="700" letter-spacing="0.14em" fill="#fbf4e8" opacity="0.85">BORREL 35 · KOMPAANARCHETYPE</text>
  <text x="1120" y="112" text-anchor="end" font-size="40" font-weight="900" fill="#fbf4e8" opacity="0.85">Nr. 03</text>
  <line x1="80" y1="150" x2="1120" y2="150" stroke="#fbf4e8" stroke-opacity="0.35" stroke-width="2"/>
  <text x="84" y="450.6" font-size="32" font-weight="700" letter-spacing="0.16em" fill="#fbf4e8" opacity="0.9">DE</text><text x="78" y="548.0" font-size="116" font-weight="900" letter-spacing="-0.03em" fill="#fbf4e8">Salmari-Soldaat</text>
  <text x="80" y="588" font-size="30" font-weight="500" fill="#fbf4e8" opacity="0.92">Shots, stad en de befaamde verdwijntruc.</text>
  <style>svg{font-family:'Segoe UI','Helvetica Neue',Arial,system-ui,sans-serif}</style>
</svg>
